<svg width="386" height="315" viewBox="0 0 386 315" fill="none" xmlns="http://www.w3.org/2000/svg">
<path d="M305.856 148.172C304.003 148.172 303.077 147.246 303.077 145.394V2.77893C303.077 0.926311 304.003 0 305.856 0H346.539C348.392 0 349.318 0.926311 349.318 2.77893V103.71H368.104C369.956 103.71 370.882 104.636 370.882 106.489V145.394C370.882 147.246 369.956 148.172 368.104 148.172H305.856Z" fill="#FFFBD9"/>
<path d="M228.784 148.172C226.931 148.172 226.005 147.246 226.005 145.394V2.77893C226.005 0.926311 226.931 0 228.784 0H269.467C271.32 0 272.246 0.926311 272.246 2.77893V103.71H291.032C292.884 103.71 293.811 104.636 293.811 106.489V145.394C293.811 147.246 292.884 148.172 291.032 148.172H228.784Z" fill="#FFFBD9"/>
<path d="M142.436 148.172C140.731 148.172 139.249 147.543 137.989 146.283L115.758 124.051C114.572 122.866 113.979 121.384 113.979 119.605V28.4562C113.979 26.7518 114.572 25.2697 115.758 24.0099L137.989 1.77852C139.249 0.592842 140.731 0 142.436 0H188.01C189.789 0 191.271 0.592842 192.456 1.77852L214.688 24.0099C215.948 25.2697 216.578 26.7518 216.578 28.4562V119.605C216.578 121.384 215.948 122.866 214.688 124.051L192.456 146.283C191.271 147.543 189.789 148.172 188.01 148.172H142.436ZM164.889 103.71H165.668C168.706 103.71 170.225 101.598 170.225 97.3736V50.6877C170.225 46.5378 168.706 44.4629 165.668 44.4629H164.889C161.777 44.4629 160.221 46.5378 160.221 50.6877V97.3736C160.221 101.598 161.777 103.71 164.889 103.71Z" fill="#FFFBD9"/>
<path d="M2.77893 148.172C0.926309 148.172 0 147.246 0 145.394V2.77893C0 0.926311 0.926309 0 2.77893 0H70.6959C72.6227 0 74.1047 0.481683 75.1422 1.44505L100.708 26.7889C101.524 27.5299 102.042 28.1598 102.265 28.6785C102.487 29.1973 102.598 30.0495 102.598 31.2352V61.6922C102.598 62.6556 101.968 63.7671 100.708 65.0269L85.3687 80.3666L82.9232 82.5897L89.8149 92.9274L103.71 119.605C104.08 120.272 104.302 120.939 104.377 121.606C104.525 122.199 104.599 122.977 104.599 123.94V145.394C104.599 147.246 103.673 148.172 101.82 148.172H66.6943C65.064 148.172 63.9524 147.431 63.3596 145.949L48.131 106.822H46.2414V145.394C46.2414 147.246 45.3151 148.172 43.4624 148.172H2.77893ZM51.2434 60.3583C54.2817 60.3583 56.7272 59.395 58.5798 57.4682C60.5065 55.5415 61.4699 53.0961 61.4699 50.1319C61.4699 47.1677 60.5065 44.7593 58.5798 42.9067C56.7272 40.9799 54.2817 40.0166 51.2434 40.0166C48.2792 40.0166 45.8338 40.9799 43.9071 42.9067C42.0544 44.7593 41.1281 47.1677 41.1281 50.1319C41.1281 53.0961 42.0544 55.5415 43.9071 57.4682C45.8338 59.395 48.2792 60.3583 51.2434 60.3583Z" fill="#FFFBD9"/>
<path d="M305.856 314.167C304.003 314.167 303.077 313.241 303.077 311.388V168.774C303.077 166.921 304.003 165.995 305.856 165.995H383.221C385.074 165.995 386 166.921 386 168.774V207.679C386 209.531 385.074 210.457 383.221 210.457H349.318V219.684H383.221C385.074 219.684 386 220.61 386 222.462V257.699C386 259.552 385.074 260.478 383.221 260.478H349.318V269.704H383.221C385.074 269.704 386 270.631 386 272.483V311.388C386 313.241 385.074 314.167 383.221 314.167H305.856Z" fill="#FFFBD9"/>
<path d="M228.784 314.167C226.931 314.167 226.005 313.241 226.005 311.388V168.774C226.005 166.921 226.931 165.995 228.784 165.995H269.467C271.32 165.995 272.246 166.921 272.246 168.774V269.704H291.032C292.884 269.704 293.811 270.631 293.811 272.483V311.388C293.811 313.241 292.884 314.167 291.032 314.167H228.784Z" fill="#FFFBD9"/>
<path d="M142.436 314.167C140.731 314.167 139.249 313.537 137.989 312.277L115.758 290.046C114.572 288.86 113.979 287.378 113.979 285.6V194.451C113.979 192.746 114.572 191.264 115.758 190.005L137.989 167.773C139.249 166.587 140.731 165.995 142.436 165.995H188.01C189.789 165.995 191.271 166.587 192.456 167.773L214.688 190.005C215.948 191.264 216.578 192.746 216.578 194.451V285.6C216.578 287.378 215.948 288.86 214.688 290.046L192.456 312.277C191.271 313.537 189.789 314.167 188.01 314.167H142.436ZM164.889 269.704H165.668C168.706 269.704 170.225 267.592 170.225 263.368V216.682C170.225 212.532 168.706 210.457 165.668 210.457H164.889C161.777 210.457 160.221 212.532 160.221 216.682V263.368C160.221 267.592 161.777 269.704 164.889 269.704Z" fill="#FFFBD9"/>
<path d="M2.77893 314.167C0.926309 314.167 0 313.241 0 311.388V168.774C0 166.921 0.926309 165.995 2.77893 165.995H70.6959C72.6227 165.995 74.1047 166.476 75.1422 167.44L100.708 192.784C101.524 193.525 102.042 194.154 102.265 194.673C102.487 195.192 102.598 196.044 102.598 197.23V227.687C102.598 228.65 101.968 229.762 100.708 231.022L85.3687 246.361L82.9232 248.584L89.8149 258.922L103.71 285.6C104.08 286.267 104.302 286.934 104.377 287.601C104.525 288.193 104.599 288.971 104.599 289.935V311.388C104.599 313.241 103.673 314.167 101.82 314.167H66.6943C65.064 314.167 63.9524 313.426 63.3596 311.944L48.131 272.817H46.2414V311.388C46.2414 313.241 45.3151 314.167 43.4624 314.167H2.77893ZM51.2434 226.353C54.2817 226.353 56.7272 225.39 58.5798 223.463C60.5065 221.536 61.4699 219.091 61.4699 216.126C61.4699 213.162 60.5065 210.754 58.5798 208.901C56.7272 206.975 54.2817 206.011 51.2434 206.011C48.2792 206.011 45.8338 206.975 43.9071 208.901C42.0544 210.754 41.1281 213.162 41.1281 216.126C41.1281 219.091 42.0544 221.536 43.9071 223.463C45.8338 225.39 48.2792 226.353 51.2434 226.353Z" fill="#FFFBD9"/>
</svg>
